<svg width="93" height="98" viewBox="0 0 93 98" fill="none" xmlns="http://www.w3.org/2000/svg">
<path d="M21.8525 54.2211C24.3225 55.1382 25.846 56.0355 27.3423 57.7216C28.3752 59.0627 29.2331 60.5344 30.4509 61.7423C37.2892 69.4361 49.0825 71.9949 58.2578 67.1139C64.3961 64.1162 69.3609 58.5499 70.9534 52.0222C72.5902 45.7016 71.2147 38.136 66.4348 33.6149C61.9137 29.3403 53.7688 28.0461 48.6117 31.7981C46.0134 33.5681 44.1103 36.5682 42.9862 39.8937C41.7882 43.4139 41.5737 47.1585 41.2606 50.8833C40.9599 54.2581 40.8391 59.1588 40.738 62.5854C40.4249 73.1017 39.8949 87.4933 39.3723 97.9998H37.9967L37.4544 86.1892C37.1192 77.6573 36.6951 65.1541 36.4486 56.6542C36.3697 46.239 35.9655 34.2608 45.0619 27.0453C52.7556 21.1905 63.7896 22.5168 70.9139 28.6057C74.4687 31.7513 76.818 35.9223 77.9372 40.3325C84.1789 65.9602 54.9422 86.3741 32.5833 73.2324C29.1986 71.2923 26.1689 68.7384 23.6422 65.7605C22.2962 64.0103 20.7062 62.2008 20.2969 59.9625C19.9691 57.9928 20.2131 56.2697 21.4482 54.3567L21.8525 54.2211Z" fill="white"/>
<path d="M15.7217 65.3078C16.6067 62.3743 17.4424 58.6889 17.8047 54.3946C18.0833 51.0888 18.0217 48.1183 17.8171 45.5916C19.4416 47.4675 21.6257 49.6566 24.4582 51.7791C27.9538 54.3971 31.3064 56.066 33.9392 57.1334C31.2891 57.6535 27.9217 58.5657 24.2314 60.2346C20.6594 61.8517 17.8269 63.708 15.7217 65.3078Z" fill="white"/>
<path d="M90.6672 58.9254C87.0706 71.552 77.8977 82.8325 62.7913 88.6404C57.6465 90.4991 52.1911 91.3891 46.7776 91.3274V90.3364C52.0876 90.2132 57.3359 89.1384 62.212 87.1539C74.693 82.2778 83.8461 71.3868 87.359 58.9082C88.8874 53.5366 89.3434 47.852 88.557 42.2536C88.2883 40.1878 87.8348 38.1417 87.2135 36.1154C81.6768 16.1969 60.7033 2.76431 40.3904 6.85646C29.3983 8.86063 20.2846 14.9989 14.1883 23.2842C9.74609 29.2968 6.91363 36.4457 6.10999 43.9693C5.3877 50.5612 6.23325 57.4217 8.93999 64.0332C12.7634 73.6621 20.223 81.6591 29.418 86.619L28.9644 87.6741C19.232 84.1809 10.7396 76.8866 5.73776 67.7951C1.06875 59.1991 -0.585368 50.2925 0.17883 41.8616C0.839491 34.0496 3.56842 26.6738 7.86518 20.331C17.7628 5.63868 36.0493 -3.4109 56.4657 1.21619C78.5337 6.56804 90.8077 24.2136 92.2745 42.6061C92.7133 48.0763 92.1759 53.6352 90.6672 58.9254Z" fill="white"/>
</svg>
